<?xml version="1.0" standalone="no"?><!-- Generator: Gravit.io --><svg xmlns="http://www.w3.org/2000/svg" xmlns:xlink="http://www.w3.org/1999/xlink" style="isolation:isolate" viewBox="501.501 -1.473 800 500" width="800" height="500"><clipPath id="_clipPath_9SWAjxC73qQtO0A0cod1G6TeZp7f0tZu"><path d=" M 501.501 498.527 L 1301.501 498.527 L 1301.501 -1.473 L 501.501 -1.473 L 501.501 498.527 Z " fill="rgb(255,255,255)"/></clipPath><g clip-path="url(#_clipPath_9SWAjxC73qQtO0A0cod1G6TeZp7f0tZu)"><path d=" M 1301.404 282.022 C 1273.266 332.695 1234.499 376.218 1189.591 408.46 C 1118.326 459.615 1035.004 491.629 950.492 489.219 C 871.356 486.957 787.947 441.771 745.621 349.019 C 711.27 273.745 701.113 203.837 644.995 147.383 C 606.243 108.391 543.609 95.093 524.525 40.746 C 519.17 25.505 518.267 9.307 519.603 -7.054 L 1303.486 -1.294 L 1301.404 282.022 Z " fill="rgb(136,149,223)"/><path d=" M 968.703 477.999 C 975.088 478.104 981.04 480.061 986.174 483.379 C 996.398 464.91 1014.901 452.66 1035.895 453.005 C 1055.499 453.328 1072.604 464.53 1082.611 481.325 C 1088.368 461.39 1105.4 447.061 1125.3 447.388 C 1147.893 447.76 1166.166 466.876 1168.273 491.115 C 1170.091 490.831 1171.946 490.648 1173.836 490.68 C 1187.616 490.906 1199.414 499.7 1205.206 512.392 L 933.356 507.916 C 937.363 490.506 951.748 477.719 968.703 477.999 Z " fill="rgb(255,255,255)"/><path d=" M 731.557 342.487 C 737.942 342.592 743.894 344.549 749.028 347.867 C 759.252 329.398 777.755 317.148 798.749 317.493 C 818.353 317.816 835.458 329.018 845.464 345.813 C 851.222 325.878 868.254 311.548 888.154 311.876 C 910.747 312.248 929.019 331.364 931.126 355.603 C 932.945 355.319 934.8 355.136 936.69 355.167 C 950.47 355.394 962.267 364.188 968.06 376.88 L 696.21 372.404 C 700.217 354.994 714.602 342.207 731.557 342.487 Z " fill="rgb(255,255,255)"/><g><path d=" M 877.172 339.408 C 879.685 336.936 882.351 337.375 883.734 337.867 C 884.947 334.487 887.559 330.639 893.17 330.639 C 903.168 330.639 903.968 341.269 903.968 341.269 C 911.007 338.966 912.367 345.697 912.367 345.964 L 874.533 345.964 C 874.533 341.624 877.172 339.408 877.172 339.408 Z " fill="rgb(255,255,255)"/><path d=" M 1067.718 358.904 C 1069.549 358.904 1071.265 359.439 1072.752 360.368 C 1075.596 355.01 1080.842 351.4 1086.862 351.4 C 1092.483 351.4 1097.44 354.54 1100.388 359.321 C 1101.944 353.562 1106.759 349.361 1112.465 349.361 C 1118.944 349.361 1124.272 354.771 1124.99 361.731 C 1125.51 361.64 1126.041 361.579 1126.583 361.579 C 1130.534 361.579 1133.958 364.051 1135.678 367.673 L 1057.726 367.673 C 1058.793 362.648 1062.856 358.904 1067.718 358.904 Z " fill="rgb(255,255,255)"/><path d=" M 1023.278 148.697 C 1023.278 151.91 1020.868 154.515 1017.893 154.515 C 1014.919 154.515 1012.508 151.91 1012.508 148.697 C 1012.508 145.482 1014.919 142.877 1017.893 142.877 C 1020.868 142.877 1023.278 145.482 1023.278 148.697 Z " fill="rgb(235,245,255)"/><path d=" M 899.5 270.299 C 899.5 272.449 897.888 274.191 895.898 274.191 C 893.908 274.191 892.295 272.449 892.295 270.299 C 892.295 268.148 893.908 266.404 895.898 266.404 C 897.888 266.404 899.5 268.148 899.5 270.299 Z " fill="rgb(132,180,253)"/><path d=" M 1043.543 249.828 L 1041.384 248.578 C 1041.249 248.5 1041.14 248.379 1041.066 248.234 L 1039.908 245.9 C 1039.617 245.31 1038.834 245.31 1038.539 245.9 L 1037.383 248.234 C 1037.31 248.379 1037.2 248.5 1037.064 248.578 L 1034.906 249.828 C 1034.359 250.145 1034.359 250.991 1034.906 251.308 L 1037.064 252.559 C 1037.2 252.637 1037.31 252.757 1037.383 252.901 L 1038.539 255.236 C 1038.834 255.825 1039.617 255.825 1039.908 255.236 L 1041.066 252.901 C 1041.14 252.757 1041.249 252.637 1041.384 252.559 L 1043.543 251.308 C 1044.09 250.991 1044.09 250.145 1043.543 249.828 Z " fill="rgb(235,245,255)"/><path d=" M 916.33 171.759 L 913.608 170.183 C 913.439 170.084 913.299 169.934 913.209 169.75 L 911.75 166.809 C 911.38 166.065 910.392 166.065 910.023 166.809 L 908.565 169.75 C 908.475 169.934 908.336 170.084 908.164 170.183 L 905.445 171.759 C 904.755 172.158 904.755 173.224 905.445 173.624 L 908.164 175.201 C 908.336 175.3 908.475 175.449 908.565 175.633 L 910.023 178.574 C 910.392 179.318 911.38 179.318 911.75 178.574 L 913.209 175.633 C 913.299 175.449 913.439 175.3 913.608 175.201 L 916.33 173.624 C 917.019 173.224 917.019 172.158 916.33 171.759 Z " fill="rgb(193,221,247)"/><path d=" M 1105.081 230.822 L 1101.79 228.915 C 1101.585 228.795 1101.416 228.613 1101.306 228.392 L 1099.541 224.835 C 1099.095 223.936 1097.901 223.936 1097.455 224.835 L 1095.691 228.392 C 1095.582 228.613 1095.412 228.795 1095.207 228.915 L 1091.918 230.822 C 1091.084 231.304 1091.084 232.594 1091.918 233.076 L 1095.207 234.983 C 1095.412 235.103 1095.582 235.285 1095.691 235.506 L 1097.455 239.062 C 1097.901 239.962 1099.095 239.962 1099.541 239.062 L 1101.306 235.506 C 1101.416 235.285 1101.585 235.103 1101.79 234.983 L 1105.081 233.076 C 1105.913 232.594 1105.913 231.304 1105.081 230.822 Z " fill="rgb(193,221,247)"/><path d=" M 848.625 217.129 L 845.613 215.383 C 845.424 215.274 845.271 215.108 845.17 214.903 L 843.554 211.647 C 843.146 210.823 842.052 210.823 841.644 211.647 L 840.028 214.903 C 839.927 215.108 839.774 215.274 839.585 215.383 L 836.573 217.129 C 835.812 217.57 835.812 218.752 836.573 219.193 L 839.585 220.94 C 839.774 221.049 839.927 221.214 840.028 221.418 L 841.644 224.674 C 842.052 225.498 843.146 225.498 843.554 224.674 L 845.17 221.418 C 845.271 221.214 845.424 221.049 845.613 220.94 L 848.625 219.193 C 849.388 218.752 849.388 217.57 848.625 217.129 Z " fill="rgb(132,180,253)"/><path d=" M 1049.789 196.83 L 1047.585 195.553 C 1047.448 195.473 1047.335 195.35 1047.262 195.202 L 1046.079 192.82 C 1045.78 192.217 1044.979 192.217 1044.682 192.82 L 1043.498 195.202 C 1043.424 195.35 1043.313 195.473 1043.175 195.553 L 1040.97 196.83 C 1040.412 197.153 1040.412 198.017 1040.97 198.34 L 1043.175 199.619 C 1043.313 199.699 1043.424 199.82 1043.498 199.968 L 1044.682 202.352 C 1044.979 202.955 1045.78 202.955 1046.079 202.352 L 1047.262 199.968 C 1047.335 199.82 1047.448 199.699 1047.585 199.619 L 1049.789 198.34 C 1050.347 198.017 1050.347 197.153 1049.789 196.83 Z " fill="rgb(132,180,253)"/><path d=" M 988.444 689.998 L 957.049 689.998 L 957.049 368.893 L 988.444 368.893 L 988.444 689.998 Z " fill="rgb(255,255,255)"/><path d=" M 984.742 377.994 C 984.742 371.142 979.601 365.586 973.262 365.586 C 966.92 365.586 961.781 371.142 961.781 377.994 C 961.781 377.994 960.297 407.333 973.262 422.951 C 986.225 407.333 984.742 377.994 984.742 377.994 Z " fill="rgb(235,245,255)"/><path d=" M 933.167 310.801 C 933.167 310.801 890.175 333.303 907.209 399.663 C 907.209 399.663 916.307 366.305 945.474 357.667 L 933.167 310.801 Z " fill="rgb(132,180,253)"/><path d=" M 1013.744 310.801 C 1013.744 310.801 1056.736 333.303 1039.7 399.663 C 1039.7 399.663 1030.603 366.305 1001.436 357.667 L 1013.744 310.801 Z " fill="rgb(132,180,253)"/><path d=" M 987.407 371.507 L 958.185 371.507 C 957.032 371.507 956.033 370.644 955.777 369.428 L 954.174 361.781 C 953.824 360.114 954.998 358.523 956.581 358.523 L 989.011 358.523 C 990.594 358.523 991.769 360.114 991.418 361.781 L 989.813 369.428 C 989.559 370.644 988.559 371.507 987.407 371.507 Z " fill="rgb(32,73,129)"/><path d=" M 930.625 292.877 C 930.625 292.877 935.11 337.383 948.971 365.586 C 948.971 365.586 970.989 354.128 997.084 365.586 C 997.084 365.586 1012.983 341.789 1016.246 289.352 C 1018.124 259.136 1015.879 224.635 1006.62 194.911 L 941.949 194.911 C 933.344 219.125 927.214 251.642 930.625 292.877 Z " fill="rgb(193,221,247)"/><path d=" M 968.258 146.687 C 961.753 154.641 950.6 170.584 941.951 194.912 L 1006.621 194.912 C 1000.696 175.892 991.904 158.823 979.458 146.098 C 976.255 142.824 971.179 143.117 968.258 146.687 Z " fill="rgb(32,73,129)"/><path d=" M 972.306 290.725 C 972.306 290.725 952.469 339.44 972.306 397.362 C 972.306 397.362 994.349 349.03 972.306 290.725 Z " fill="rgb(132,180,253)"/><path d=" M 999.109 245.521 C 999.109 260.415 987.938 272.488 974.157 272.488 C 960.378 272.488 949.206 260.415 949.206 245.521 C 949.206 230.627 960.378 218.552 974.157 218.552 C 987.938 218.552 999.109 230.627 999.109 245.521 Z " fill="rgb(32,73,129)"/><path d=" M 991.48 245.521 C 991.48 255.86 983.725 264.243 974.157 264.243 C 964.591 264.243 956.835 255.86 956.835 245.521 C 956.835 235.182 964.591 226.799 974.157 226.799 C 983.725 226.799 991.48 235.182 991.48 245.521 Z " fill="rgb(255,211,116)"/></g></g></svg>